<svg xmlns="http://www.w3.org/2000/svg" viewBox="0 0 60 60"><defs><style>.cls-1{opacity:0;}.cls-2{fill:#383838;}.cls-3{fill:#fff;}</style></defs><g id="Layer_2" data-name="Layer 2"><g id="Layer_1-2" data-name="Layer 1"><g class="cls-1"><rect class="cls-2" width="60" height="60"/></g><path class="cls-3" d="M59.38,4.76A2,2,0,0,0,56.67,4L48.1,8.6a7.45,7.45,0,0,0-5.3-2.19H7.89a7.5,7.5,0,0,0-7.49,8L1.82,34.29a7.5,7.5,0,0,0,7.49,7H38.9a7.52,7.52,0,0,0,7.37-6.06l3.9-19.84a7.52,7.52,0,0,0-.09-3.28l8.5-4.61A2,2,0,0,0,59.38,4.76ZM46.24,14.59l-3.9,19.84a3.51,3.51,0,0,1-3.44,2.83H9.31A3.52,3.52,0,0,1,5.81,34L4.39,14.16a3.49,3.49,0,0,1,3.5-3.75H42.8a3.5,3.5,0,0,1,3.44,4.18Z"/><path class="cls-3" d="M9,44.44A5.93,5.93,0,1,0,15,50.37,5.93,5.93,0,0,0,9,44.44Zm0,7.85A1.93,1.93,0,1,1,11,50.37,1.92,1.92,0,0,1,9,52.29Z"/><path class="cls-3" d="M41.18,44.44a5.93,5.93,0,1,0,5.92,5.93A5.94,5.94,0,0,0,41.18,44.44Zm0,7.85a1.93,1.93,0,1,1,1.92-1.92A1.92,1.92,0,0,1,41.18,52.29Z"/></g></g></svg>