<svg xmlns="http://www.w3.org/2000/svg" viewBox="0 0 344.65 208.21"><defs><style>.cls-1{fill:#333532;}.cls-2{fill:#e8e5e5;}.cls-3{fill:#d7242b;}.cls-4{fill:#7f1f26;}.cls-5{fill:#fff;}.cls-6{fill:#fbfcfa;}.cls-7{fill:#f9faf9;}</style></defs><g id="Layer_2" data-name="Layer 2"><g id="Layer_1-2" data-name="Layer 1"><path class="cls-1" d="M19.57,183.25a5.59,5.59,0,0,0,3.06-1.51,5.91,5.91,0,0,0-4.16-10.08,5.57,5.57,0,0,0-4.17,1.75,5.65,5.65,0,0,0-1.75,4.17,5.67,5.67,0,0,0,4.7,5.65,6.87,6.87,0,0,0-4.37,2.17A7.15,7.15,0,0,0,7.42,183a7.33,7.33,0,0,0-5.32,2.09,7.44,7.44,0,0,0,5.32,12.7,7.29,7.29,0,0,0,7.42-7.42V190a1.55,1.55,0,0,0,0-.37v0a3.61,3.61,0,0,1,1.29-2,3.43,3.43,0,0,1,2.22-.79,3.5,3.5,0,0,1,2.57,1.05,3.54,3.54,0,0,1,1.06,2.57,3.47,3.47,0,0,1-.72,2.16A5.29,5.29,0,0,1,19.13,194a1.87,1.87,0,0,0-1.23,1.72,2.1,2.1,0,0,0,.5,1.41,1.66,1.66,0,0,0,1.34.58,2.89,2.89,0,0,0,.55-.08,7,7,0,0,0,4-2.57,7.36,7.36,0,0,0,1.44-4.58,7.24,7.24,0,0,0-2.13-5.28A7,7,0,0,0,19.57,183.25ZM17,176.09a2.05,2.05,0,0,1,1.5-.64,2,2,0,0,1,1.47.63,2.09,2.09,0,0,1,.62,1.5,2.12,2.12,0,0,1-2.09,2.09,2.09,2.09,0,0,1-1.5-.62,2.05,2.05,0,0,1,0-3ZM10,193A3.5,3.5,0,0,1,7.42,194,3.46,3.46,0,0,1,4.87,193a3.57,3.57,0,0,1-1-2.58,3.53,3.53,0,0,1,3.59-3.58,3.55,3.55,0,0,1,2.57,1,3.43,3.43,0,0,1,1.06,2.54A3.51,3.51,0,0,1,10,193Z"/><path class="cls-1" d="M40.29,190.91a4.64,4.64,0,0,0-2.34-.58,5,5,0,0,0-3,.85,3.53,3.53,0,0,0-1.56,2.54,3.35,3.35,0,0,1-2.11-3.29,3.46,3.46,0,0,1,1.06-2.55,3.56,3.56,0,0,1,2.57-1,3.49,3.49,0,0,1,1.29.23,6.13,6.13,0,0,1,1.36,1.06,2.75,2.75,0,0,0,1.47.87,2.39,2.39,0,0,0,1.49-.55,1.68,1.68,0,0,0,.69-1.33,1.76,1.76,0,0,0-.35-1,7,7,0,0,0-6-3,7.3,7.3,0,0,0-5.32,2.1,7.44,7.44,0,0,0,5.32,12.7,8.23,8.23,0,0,0,4-1.2c1.63-.88,2.46-1.93,2.46-3.12a2,2,0,0,0,.11-.67A2.19,2.19,0,0,0,40.29,190.91Zm-2.18,1.34-.09.07a.44.44,0,0,0-.13.15,3.55,3.55,0,0,1-3.17,1.59h-.14c0-.85.7-1.52,2.19-2A1.4,1.4,0,0,1,38.11,192.25Z"/><path class="cls-1" d="M64.21,183a2.53,2.53,0,0,0-.55-.08,1.69,1.69,0,0,0-1.35.58,2.14,2.14,0,0,0-.49,1.41,1.74,1.74,0,0,0,1.39,1.76A3.69,3.69,0,0,1,65.1,188a3.4,3.4,0,0,1,.76,2.17,3.62,3.62,0,0,1-3.63,3.63,3.29,3.29,0,0,1-3.4-2.83,18.34,18.34,0,0,1-.34-2.43,8.11,8.11,0,0,0-1-2.23,7.31,7.31,0,0,0-1.61-1.75,7.48,7.48,0,0,0-2.08-1.13,7.24,7.24,0,0,0-2.43-.4,7.41,7.41,0,0,0-4.55,13.24,4.64,4.64,0,0,0,2.78,1.28,1.86,1.86,0,0,0,.49-.07h.17a2.35,2.35,0,0,0,2-1.07,3.76,3.76,0,0,0,.75-2.31A4.07,4.07,0,0,0,51.58,191a4.4,4.4,0,0,0-3.09-1.29l-.39,0-.3,0A3.4,3.4,0,0,1,49,187.72a3.49,3.49,0,0,1,2.35-.88,3.53,3.53,0,0,1,3.51,2.64v.09c0,.48.09.89.13,1.25a6.65,6.65,0,0,1,0,1A7.35,7.35,0,0,0,57.57,196a7.45,7.45,0,0,0,4.66,1.59,7.29,7.29,0,0,0,7.42-7.42,7.4,7.4,0,0,0-1.44-4.58A7,7,0,0,0,64.21,183ZM48,191.66a1.91,1.91,0,0,1,.68-.12,2,2,0,0,1,1.64,1.08,1.65,1.65,0,0,1,.18,1.33c-.46-.23-.81-.42-1.05-.56a1.7,1.7,0,0,1-.45-.28A3.1,3.1,0,0,1,48,191.66Z"/><path class="cls-1" d="M74.28,183.74a2.9,2.9,0,0,0-2.92,2.92,2.78,2.78,0,0,0,.85,2.05,2.86,2.86,0,0,0,2.07.83,2.89,2.89,0,0,0,2.87-2.88,2.87,2.87,0,0,0-.84-2A2.79,2.79,0,0,0,74.28,183.74Zm0,2.26c.42,0,.62.21.62.66s-.2.63-.62.63-.67-.2-.67-.63A.58.58,0,0,1,74.28,186Z"/><path class="cls-1" d="M74.28,191.06A2.9,2.9,0,0,0,71.36,194a2.75,2.75,0,0,0,.85,2.05,2.86,2.86,0,0,0,2.07.83A2.89,2.89,0,0,0,77.15,194a2.83,2.83,0,0,0-.84-2A2.74,2.74,0,0,0,74.28,191.06Zm0,2.25c.42,0,.62.21.62.66s-.2.63-.62.63-.67-.2-.67-.63A.59.59,0,0,1,74.28,193.31Z"/><path class="cls-1" d="M91.55,190.91a4.62,4.62,0,0,0-2.34-.58,5,5,0,0,0-3,.85,3.52,3.52,0,0,0-1.55,2.54,3.35,3.35,0,0,1-2.11-3.29,3.46,3.46,0,0,1,1.06-2.55,3.55,3.55,0,0,1,2.57-1,3.47,3.47,0,0,1,1.28.23,5.86,5.86,0,0,1,1.37,1.06c.66.59,1.13.87,1.47.87a2.36,2.36,0,0,0,1.48-.55,1.67,1.67,0,0,0,.7-1.33,1.71,1.71,0,0,0-.36-1,7,7,0,0,0-5.94-3,7.3,7.3,0,0,0-5.32,2.1,7.44,7.44,0,0,0,5.32,12.7,8.19,8.19,0,0,0,4-1.2c1.64-.88,2.46-1.93,2.46-3.12a2.06,2.06,0,0,0,.12-.67A2.19,2.19,0,0,0,91.55,190.91Zm-2.18,1.34-.09.07a.58.58,0,0,0-.13.15A3.53,3.53,0,0,1,86,194.06h-.14c0-.85.7-1.52,2.19-2A1.37,1.37,0,0,1,89.37,192.25Z"/><path class="cls-1" d="M120.92,190.43A7.29,7.29,0,0,0,113.5,183a7,7,0,0,0-5.43,2.38A7.17,7.17,0,0,0,102.6,183a7.33,7.33,0,0,0-5.32,2.09A7.49,7.49,0,1,0,110,190.39V190a1.55,1.55,0,0,0,0-.37v0a3.71,3.71,0,0,1,1.29-2,3.44,3.44,0,0,1,2.23-.79,3.6,3.6,0,0,1,3.63,3.62,3.48,3.48,0,0,1-.73,2.16,5.21,5.21,0,0,1-2.09,1.36,1.88,1.88,0,0,0-1.23,1.72,2,2,0,0,0,.3.83,5.6,5.6,0,0,0-3.89,1.66,5.88,5.88,0,1,0,8.33,0,5.83,5.83,0,0,0-1.43-1,6.83,6.83,0,0,0,3.09-2.18A7.42,7.42,0,0,0,120.92,190.43ZM105.17,193a3.63,3.63,0,0,1-5.12,0,3.61,3.61,0,0,1-1-2.58,3.62,3.62,0,0,1,6.16-2.54,3.43,3.43,0,0,1,1.06,2.54A3.51,3.51,0,0,1,105.17,193Zm10.09,11a2.28,2.28,0,0,1-3.89-1.6,2.24,2.24,0,0,1,.67-1.61,2.27,2.27,0,0,1,3.22,0,2.24,2.24,0,0,1,.67,1.61A2.2,2.2,0,0,1,115.26,203.93Z"/><path class="cls-1" d="M140.71,182.94a7.12,7.12,0,0,0-5.35,2.31,7.36,7.36,0,0,0-11,.44,1.9,1.9,0,0,0-.47,1.24,1.83,1.83,0,0,0,.6,1.34,1.89,1.89,0,0,0,1.35.57,1.84,1.84,0,0,0,1.44-.71,3.44,3.44,0,0,1,2.76-1.32,2.93,2.93,0,0,1,2.24.76l-1.36.9a10.88,10.88,0,0,1-1.05.61,2.46,2.46,0,0,0-.67,1.35c-.06.72,1,1.62,3.29,2.75a3.59,3.59,0,0,1-2.45.84,3.45,3.45,0,0,1-2.76-1.25,2,2,0,0,0-1.4-.71,2,2,0,0,0-1.39.55,1.85,1.85,0,0,0-.13,2.6,7.45,7.45,0,0,0,11.5-.23,4.39,4.39,0,0,0,1.13-2.35,1.35,1.35,0,0,0-.45-1l-2.14-1.21c1-.59,2-1.22,2-1.25.5-.36,1-.65,1.32-.88l.37-.23.5-.31a5.12,5.12,0,0,1,2.54-.95,2.32,2.32,0,0,1,1.07.26,3.54,3.54,0,0,1,.92.68,3.7,3.7,0,0,1,.7,1,3.53,3.53,0,0,1,.35,1l-.3,0-.39,0a4.36,4.36,0,0,0-2.38.7,4,4,0,0,0-2,3.64,3.71,3.71,0,0,0,.74,2.31,2.37,2.37,0,0,0,2,1.08H142a2.28,2.28,0,0,0,.52.08,4.78,4.78,0,0,0,2.74-1.29,7.38,7.38,0,0,0,1.35-10.33A7.06,7.06,0,0,0,140.71,182.94Zm1.09,9.61a2,2,0,0,1,1.64-1.09,1.82,1.82,0,0,1,.65.12,3.15,3.15,0,0,1-1,1.46s-.22.15-1.5.84A1.55,1.55,0,0,1,141.8,192.55Z"/><path class="cls-1" d="M175.81,190.43a7.29,7.29,0,0,0-7.43-7.41A7,7,0,0,0,163,185.4a7.17,7.17,0,0,0-5.47-2.38,7.33,7.33,0,0,0-5.32,2.09,7.49,7.49,0,1,0,12.74,5.28V190a1.55,1.55,0,0,0,0-.37v0a3.71,3.71,0,0,1,1.29-2,3.43,3.43,0,0,1,2.22-.79,3.59,3.59,0,0,1,3.63,3.62,3.47,3.47,0,0,1-.72,2.16A5.29,5.29,0,0,1,169.2,194a1.87,1.87,0,0,0-1.23,1.72,2.16,2.16,0,0,0,.29.83,5.64,5.64,0,0,0-3.89,1.66,5.89,5.89,0,1,0,8.33,0,5.65,5.65,0,0,0-1.43-1,6.8,6.8,0,0,0,3.1-2.18A7.42,7.42,0,0,0,175.81,190.43ZM160.06,193a3.63,3.63,0,0,1-5.12,0,3.57,3.57,0,0,1-1-2.58,3.53,3.53,0,0,1,3.59-3.58,3.53,3.53,0,0,1,2.57,1,3.43,3.43,0,0,1,1.06,2.54A3.51,3.51,0,0,1,160.06,193Zm10.08,11a2.17,2.17,0,0,1-1.6.68,2.21,2.21,0,0,1-1.61-.68,2.16,2.16,0,0,1-.67-1.6,2.29,2.29,0,0,1,2.28-2.28,2.16,2.16,0,0,1,1.6.67,2.21,2.21,0,0,1,.68,1.61A2.17,2.17,0,0,1,170.14,203.93Z"/><path class="cls-1" d="M197.33,183.29a1.67,1.67,0,0,0,1.37-1.75,2,2,0,0,0-.51-1.37,1.69,1.69,0,0,0-1.32-.58,2.71,2.71,0,0,0-.42,0,3.67,3.67,0,0,1-.39,0,2.07,2.07,0,0,1-1.51-.6,2,2,0,0,1-.62-1.49,2.05,2.05,0,0,1,.62-1.51,2,2,0,0,1,1.51-.62,1.92,1.92,0,0,1,2,1.57,1.7,1.7,0,0,0,1.76,1.35,2.09,2.09,0,0,0,1.39-.49,1.62,1.62,0,0,0,.6-1.31,1.9,1.9,0,0,0-.11-.59,5.32,5.32,0,0,0-.78-1.73,5.92,5.92,0,0,0-1.31-1.38,5.77,5.77,0,0,0-3.56-1.21,5.57,5.57,0,0,0-4.17,1.75,5.63,5.63,0,0,0-1.75,4.17,5.66,5.66,0,0,0,4.68,5.64,6.83,6.83,0,0,0-4.38,2.18,7.4,7.4,0,0,0-12.89,5,7,7,0,0,0,3.26,6.1,1.9,1.9,0,0,0,1.08.4,1.79,1.79,0,0,0,1.36-.6,2,2,0,0,0,.56-1.39,1.82,1.82,0,0,0-.87-1.52,3.48,3.48,0,0,1-1.56-3,3.55,3.55,0,0,1,1-2.57,3.62,3.62,0,1,1,4.4,5.67,1.77,1.77,0,0,0-.95,1.6,1.93,1.93,0,0,0,.54,1.37,1.71,1.71,0,0,0,1.33.58,1.87,1.87,0,0,0,1-.27,7,7,0,0,0,3.65-6.38c0-.13,0-.26,0-.39s0-.24-.05-.36l0,0a3.66,3.66,0,0,1,1.29-2,3.43,3.43,0,0,1,2.22-.79,3.59,3.59,0,0,1,3.63,3.62,3.47,3.47,0,0,1-.72,2.16,5.29,5.29,0,0,1-2.09,1.36,1.87,1.87,0,0,0-1.23,1.72,2.1,2.1,0,0,0,.5,1.41,1.66,1.66,0,0,0,1.34.58,2.89,2.89,0,0,0,.55-.08,7.05,7.05,0,0,0,4-2.57,7.42,7.42,0,0,0,1.44-4.58,7.21,7.21,0,0,0-2.14-5.28A7,7,0,0,0,197.33,183.29Z"/><path class="cls-1" d="M223.08,182.94a7.12,7.12,0,0,0-5.35,2.31,7.36,7.36,0,0,0-10.95.44,1.9,1.9,0,0,0-.47,1.24,1.83,1.83,0,0,0,.6,1.34,1.89,1.89,0,0,0,1.35.57,1.84,1.84,0,0,0,1.44-.71,3.44,3.44,0,0,1,2.76-1.32,2.93,2.93,0,0,1,2.24.76l-1.36.9a10.88,10.88,0,0,1-1.05.61,2.4,2.4,0,0,0-.67,1.35c-.06.72,1,1.62,3.29,2.75a3.59,3.59,0,0,1-2.45.84,3.45,3.45,0,0,1-2.76-1.25,1.87,1.87,0,0,0-2.79-.16,1.85,1.85,0,0,0-.13,2.6,7.45,7.45,0,0,0,11.5-.23,4.47,4.47,0,0,0,1.13-2.35,1.33,1.33,0,0,0-.46-1l-2.13-1.21c1-.59,2-1.22,2-1.25.5-.36,1-.65,1.32-.88l.37-.23.5-.31a5.12,5.12,0,0,1,2.54-.95,2.35,2.35,0,0,1,1.07.26,3.71,3.71,0,0,1,.92.68,4,4,0,0,1,.7,1,3.53,3.53,0,0,1,.35,1l-.3,0a4.32,4.32,0,0,0-2.78.68,4,4,0,0,0-2,3.64,3.71,3.71,0,0,0,.74,2.31,2.37,2.37,0,0,0,1.95,1.08h.17a2.28,2.28,0,0,0,.52.08,4.78,4.78,0,0,0,2.74-1.29A7.38,7.38,0,0,0,229,185.85,7.06,7.06,0,0,0,223.08,182.94Zm1.09,9.61a2,2,0,0,1,1.64-1.09,1.82,1.82,0,0,1,.65.12,3.15,3.15,0,0,1-1,1.46s-.22.15-1.5.84A1.55,1.55,0,0,1,224.17,192.55Z"/><path class="cls-1" d="M245.24,190.91a4.62,4.62,0,0,0-2.34-.58,5,5,0,0,0-3,.85,3.52,3.52,0,0,0-1.55,2.54,3.35,3.35,0,0,1-2.11-3.29,3.46,3.46,0,0,1,1.06-2.55,3.55,3.55,0,0,1,2.57-1,3.47,3.47,0,0,1,1.28.23,5.86,5.86,0,0,1,1.37,1.06A2.7,2.7,0,0,0,244,189a2.39,2.39,0,0,0,1.49-.55,1.67,1.67,0,0,0,.7-1.33,1.71,1.71,0,0,0-.36-1,7,7,0,0,0-5.94-3,7.27,7.27,0,0,0-5.32,2.1,7.44,7.44,0,0,0,5.32,12.7,8.19,8.19,0,0,0,4-1.2c1.64-.88,2.46-1.93,2.46-3.12a2.06,2.06,0,0,0,.12-.67A2.19,2.19,0,0,0,245.24,190.91Zm-2.18,1.34-.09.07a.58.58,0,0,0-.13.15,3.53,3.53,0,0,1-3.17,1.59h-.13c0-.85.7-1.52,2.19-2A1.38,1.38,0,0,1,243.06,192.25Z"/><path class="cls-1" d="M278.31,183a6.93,6.93,0,0,0-5.57,2.54c-.11-.12-.15-.29-.27-.41a7.21,7.21,0,0,0-5.29-2.13,7,7,0,0,0-5.42,2.38,7.4,7.4,0,0,0-12.89,5,7,7,0,0,0,3.26,6.1,1.9,1.9,0,0,0,1.08.4,1.79,1.79,0,0,0,1.36-.6,2,2,0,0,0,.56-1.39,1.82,1.82,0,0,0-.87-1.52,3.5,3.5,0,0,1-1.56-3,3.55,3.55,0,0,1,1-2.57,3.62,3.62,0,1,1,4.4,5.67,1.77,1.77,0,0,0-.95,1.6,1.93,1.93,0,0,0,.54,1.37,1.71,1.71,0,0,0,1.33.58,1.87,1.87,0,0,0,1-.27,7,7,0,0,0,3.65-6.38c0-.13,0-.26,0-.39s0-.24-.05-.36l0,0a3.71,3.71,0,0,1,1.29-2,3.43,3.43,0,0,1,2.22-.79,3.59,3.59,0,0,1,3.63,3.62,3.47,3.47,0,0,1-.72,2.16A5.29,5.29,0,0,1,268,194a1.87,1.87,0,0,0-1.23,1.72,2.1,2.1,0,0,0,.5,1.41,1.66,1.66,0,0,0,1.34.58,3.06,3.06,0,0,0,.56-.08,7.06,7.06,0,0,0,4-2.57,7.42,7.42,0,0,0,1.44-4.58c0-.26-.12-.48-.14-.73a1.62,1.62,0,0,0,.67-.87.61.61,0,0,1,.1-.24l0-.06a4,4,0,0,1,3.05-1.72,3.62,3.62,0,0,1,2.91,5.78,5.29,5.29,0,0,1-2.09,1.36,1.86,1.86,0,0,0-1.23,1.72,2.07,2.07,0,0,0,.49,1.41,1.68,1.68,0,0,0,1.34.58,2.86,2.86,0,0,0,.56-.08,7,7,0,0,0,4-2.57,7.36,7.36,0,0,0,1.44-4.58,7.29,7.29,0,0,0-7.42-7.41Z"/><path class="cls-1" d="M294.78,186.81a3.42,3.42,0,0,1,2.76,1.28,1.82,1.82,0,0,0,1.44.72,1.92,1.92,0,0,0,1.35-.58,1.8,1.8,0,0,0,.6-1.34,1.86,1.86,0,0,0-.47-1.2,7,7,0,0,0-4.35-2.39,1.66,1.66,0,0,0,1.39-1.76,2,2,0,0,0-.51-1.37,1.69,1.69,0,0,0-1.32-.58,2.71,2.71,0,0,0-.42,0,3.67,3.67,0,0,1-.39,0,2.07,2.07,0,0,1-1.51-.6,2,2,0,0,1-.62-1.49,2.05,2.05,0,0,1,.62-1.51,2,2,0,0,1,1.51-.62,1.92,1.92,0,0,1,2,1.57,1.7,1.7,0,0,0,1.76,1.35,2.09,2.09,0,0,0,1.39-.49,1.62,1.62,0,0,0,.6-1.31,1.9,1.9,0,0,0-.11-.59,5.32,5.32,0,0,0-.78-1.73,5.92,5.92,0,0,0-1.31-1.38,5.77,5.77,0,0,0-3.56-1.21,5.57,5.57,0,0,0-4.17,1.75,5.63,5.63,0,0,0-1.75,4.17,5.65,5.65,0,0,0,4.69,5.64,7.33,7.33,0,0,0,1.15,14.59,7,7,0,0,0,5.63-2.64,1.69,1.69,0,0,0,.48-1.2,1.95,1.95,0,0,0-1.95-1.95,1.79,1.79,0,0,0-1.4.72,3.42,3.42,0,0,1-2.76,1.28,3.6,3.6,0,0,1-3.63-3.63,3.43,3.43,0,0,1,1.06-2.54A3.55,3.55,0,0,1,294.78,186.81Z"/><path class="cls-1" d="M306.79,183.74a2.89,2.89,0,0,0-2.91,2.92,2.77,2.77,0,0,0,.84,2.05,2.86,2.86,0,0,0,2.07.83,2.9,2.9,0,0,0,2.88-2.88,2.88,2.88,0,0,0-.85-2A2.78,2.78,0,0,0,306.79,183.74Zm0,2.26c.42,0,.63.21.63.66a.55.55,0,0,1-.63.63c-.45,0-.66-.2-.66-.63A.58.58,0,0,1,306.79,186Z"/><path class="cls-1" d="M306.79,191.06a2.89,2.89,0,0,0-2.91,2.91,2.74,2.74,0,0,0,.84,2.05,2.86,2.86,0,0,0,2.07.83,2.9,2.9,0,0,0,2.88-2.88,2.84,2.84,0,0,0-.85-2A2.72,2.72,0,0,0,306.79,191.06Zm0,2.25c.42,0,.63.21.63.66a.55.55,0,0,1-.63.63c-.45,0-.66-.2-.66-.63A.58.58,0,0,1,306.79,193.31Z"/><path class="cls-1" d="M329.7,183a7.21,7.21,0,0,0-5.51,2.42,7.18,7.18,0,0,0-5.47-2.39,7,7,0,0,0-5.94,3,1.72,1.72,0,0,0-.4,1,1.69,1.69,0,0,0,.7,1.33,2.31,2.31,0,0,0,1.49.55,2,2,0,0,0,1.36-.75,3.78,3.78,0,0,1,2.79-1.41,3.54,3.54,0,0,1,2.39.89,3.47,3.47,0,0,1,1.17,2.24v.92a3.25,3.25,0,0,1-2.07,2.83,3.53,3.53,0,0,0-1.56-2.54,5,5,0,0,0-3-.85,4.49,4.49,0,0,0-2.34.58,2.18,2.18,0,0,0-1.22,2,1.85,1.85,0,0,0,.11.65c0,1.21.83,2.26,2.46,3.14a8.24,8.24,0,0,0,4,1.2,7.14,7.14,0,0,0,5.47-2.42,7.63,7.63,0,0,0,10.79.28,7.31,7.31,0,0,0,2.1-5.32A7.29,7.29,0,0,0,329.7,183Zm-3.59,6.92a3.38,3.38,0,0,1,1.17-2.25,3.62,3.62,0,0,1,2.42-.88,3.39,3.39,0,0,1,1.37.28,3.67,3.67,0,0,1,1.16.77A3.93,3.93,0,0,1,333,189a3.52,3.52,0,0,1,.29,1.38,3.58,3.58,0,0,1-1.05,2.58A3.43,3.43,0,0,1,329.7,194a3.59,3.59,0,0,1-2.41-.9,3.46,3.46,0,0,1-1.18-2.27Zm-7.06,4.12h-.14a3.53,3.53,0,0,1-3.16-1.58.52.52,0,0,0-.14-.16l-.09-.07a1.34,1.34,0,0,1,1.34-.17C318.35,192.54,319.08,193.21,319.05,194.06Z"/><path class="cls-1" d="M329.73,181.88a2.76,2.76,0,0,0,2-.85,2.86,2.86,0,0,0,.83-2.07,2.89,2.89,0,0,0-2.88-2.87,2.87,2.87,0,0,0-2.05.84,2.78,2.78,0,0,0-.87,2,2.9,2.9,0,0,0,2.92,2.92Zm0-3.54c.43,0,.63.2.63.62s-.2.67-.63.67-.66-.21-.66-.67S329.28,178.34,329.73,178.34Z"/><path class="cls-1" d="M332.35,204.42h-.63v-4.75a1.9,1.9,0,0,0-3.79,0v6.62a1.9,1.9,0,0,0,.56,1.34,1.79,1.79,0,0,0,1.32.58h2.54a1.82,1.82,0,0,0,1.37-.55,1.85,1.85,0,0,0,.54-1.37A1.67,1.67,0,0,0,332.35,204.42Z"/><path class="cls-1" d="M341.78,189.54a2.89,2.89,0,0,0,2.87-2.88,2.87,2.87,0,0,0-.84-2,2.78,2.78,0,0,0-2-.87,2.9,2.9,0,0,0-2.92,2.92,2.78,2.78,0,0,0,.85,2.05A2.86,2.86,0,0,0,341.78,189.54Zm0-3.54c.42,0,.62.21.62.66s-.2.63-.62.63-.67-.2-.67-.63A.58.58,0,0,1,341.78,186Z"/><path class="cls-1" d="M341.78,191.06a2.9,2.9,0,0,0-2.92,2.91,2.75,2.75,0,0,0,.85,2.05,2.86,2.86,0,0,0,2.07.83,2.89,2.89,0,0,0,2.87-2.88,2.83,2.83,0,0,0-.84-2A2.74,2.74,0,0,0,341.78,191.06Zm0,2.25c.42,0,.62.21.62.66s-.2.63-.62.63-.67-.2-.67-.63A.59.59,0,0,1,341.78,193.31Z"/><ellipse class="cls-2" cx="163.44" cy="134.59" rx="18.36" ry="20.4"/><path class="cls-2" d="M253.42,129.64c-39.08,25.52-66.21.42-71.62-6-1.14-1.36-6.47,22.19-6.47,22.19s-3.61-.16-1.69,1.28c-1.26.06,2.23,1.06,1,1a17.16,17.16,0,0,1-1.93,1.8,21.7,21.7,0,0,1-1.92,1.32c-2.34,1.27-4.69-.24-7.27-.24-4.33,0-8.72.36-11.66-2.88-2.22-2.28-.18-4.75-.48-6.19-.42-1.92-2.23,2.58-2.41.78a15.82,15.82,0,0,0-1.8.6c-5.23,11.9-10.52,13.58-18,20.62A41.88,41.88,0,0,1,114.93,173a1.26,1.26,0,0,0-.36.24l-.54.3a15.61,15.61,0,0,1-7.64,2A15.25,15.25,0,0,1,95.09,150a9.83,9.83,0,0,1,4.75-3.12c6.19-1.87,11.42-6,16.29-13-.24-.55-.3-.79-.54-1.33a23,23,0,0,1-12.92-6.79,18,18,0,0,1-9,7.94,18.74,18.74,0,0,1-6,1.08c-3.85,0-9.19-1.51-12.8-8.84a23.07,23.07,0,0,1-2.4-9.37c-.18-7.7-.31-15.45-.43-23.14-.84,2.34-1.74,4.75-2.64,7.21a39.29,39.29,0,0,1-6,11.18,23.79,23.79,0,0,1-2.76,2.76l-.18.18a13,13,0,0,1-8.54,3.07c-6.85,0-13.22-4.93-14.42-11.24a43.91,43.91,0,0,1-.84-7.15c-.25-3.13-.43-6.19-.61-9.26-.24-4.08-.48-8.11-.78-12.14-.78,5.23-1.5,10.88-2.16,17-1.5,14-2.34,24.82-2.58,34.86a15.19,15.19,0,0,1-15.33,14.84A15.18,15.18,0,0,1,.07,129.7c-.06-6.91.42-13.82,1-20.5.54-7.39,1.2-13.82,1.92-19.71C5.48,69.84,8.31,53.43,13.84,37.2c2.1-6.31,4.86-13.52,10.27-19.65C28.92,12.08,35,9.14,41.6,9.14c.72,0,1.45.06,2.17.12,5.77.54,10.52,3.84,13.46,9.31,2.1,3.91,2.88,8.05,3.55,11.72.36,1.74.66,3.55.9,5.35,1.74-4.27,3.6-8.47,5.53-12.68l.06-.12a54.63,54.63,0,0,1,5.59-10A16.3,16.3,0,0,1,86.2,5.71a11.56,11.56,0,0,1,1.44.06c7,.6,12.68,6,14,13.28a40.3,40.3,0,0,1,.61,8.3v.9c.06,8.17.06,16.34.12,24.52,0,1.56.06,3.12.06,4.69A21.7,21.7,0,0,1,116.79,52c.84,0,1.62.06,2.46.12a12.33,12.33,0,0,1,9,5.17,5.7,5.7,0,0,1,.6,1,18.5,18.5,0,0,1,2.28-3.07,11.93,11.93,0,0,1,9-3.9,13.68,13.68,0,0,1,8.17,2.76c.18-5.47.42-10.52.66-15.08,0,0,.06-2.11.06-2.17a13.82,13.82,0,0,1-5.95,1.32,15.33,15.33,0,0,1-7.15-1.86A15.18,15.18,0,0,1,134.82,10a58.94,58.94,0,0,1,18.87-8,65.85,65.85,0,0,1,15.75-2,57.51,57.51,0,0,1,21.27,4c8.72,3.36,15.45,8.11,20.56,14.54,6.55,8.42,8.71,18,6.55,28.67.72-.24,1.44-.42,2.16-.6a32.11,32.11,0,0,1,3.31-.54,12.15,12.15,0,0,1,1.2-8.36c2.1-4.14,5.41-6.73,8.36-8.77a84,84,0,0,1,21.33-10.4,20.34,20.34,0,0,1,6.25-10.16,15.87,15.87,0,0,1,10.1-3.84,14.91,14.91,0,0,1,5.05.84,13.91,13.91,0,0,1,8.59,8.23,184.82,184.82,0,0,1,24.1,1.45l1,.12a35.39,35.39,0,0,1,6.07,1.14c8.06,1.32,14.79,3.9,20.44,7.93,8,5.65,9.19,12.62,8.77,17.43A20.36,20.36,0,0,1,339,54a12.15,12.15,0,0,1-3.9,2.89,13.18,13.18,0,0,1-8.3.9c-11.3-2.29-20.25-9.86-23.44-12.92a6.73,6.73,0,0,0-4-1.87,3.88,3.88,0,0,0-3.13,1C307.55,47.06,315,57.4,317.71,61.78a8.88,8.88,0,0,0,.6.91c.18.36.36.66.54,1a.06.06,0,0,0,.06.06c1.38,2.58,2.83,5.59,4.27,9.07l2,6.31.18.6a19.8,19.8,0,0,1,8.42,4.93.06.06,0,0,1,.06.06,13.19,13.19,0,0,1,1.44,8.42,2.43,2.43,0,0,1-.3.54,7.17,7.17,0,0,1-3.49,2.64,21.67,21.67,0,0,1-.36,9.26,18.35,18.35,0,0,1-5.29,9,4.64,4.64,0,0,1,1,.42,19,19,0,0,1,8.24,7,19.85,19.85,0,0,1,1.8,18.51.21.21,0,0,1-.06.12,14.88,14.88,0,0,1-4.33,5.71,16.12,16.12,0,0,1-4.62,2.4,14.34,14.34,0,0,1-5.41,4.57,16.18,16.18,0,0,1-7.22,1.68,16.67,16.67,0,0,1-7-1.5,17.37,17.37,0,0,1-4-2.59,6.7,6.7,0,0,1-1.09.06,11.9,11.9,0,0,1-2.1-.18,12.56,12.56,0,0,1-5.05-2,11.14,11.14,0,0,1-5.95,3.61,13.58,13.58,0,0,1-10.58,5.05,16.24,16.24,0,0,1-10.15-3.79h-.12a7.19,7.19,0,0,0-.72-.66,19.06,19.06,0,0,1-3.55-.9,12.38,12.38,0,0,1-6.91-6.31,12.6,12.6,0,0,1-1.08-4.81"/><path class="cls-3" d="M56.72,62.82c.71-1.66,1.49-3.31,2.14-5C63,47,67.07,36,72,25.5a52.75,52.75,0,0,1,4.93-9c2.11-2.87,5-4.58,8.65-4.27,4.07.35,7.09,3.44,7.85,7.63A46.09,46.09,0,0,1,93.89,28c.21,25.23.17,50.44.64,75.67,0,1.4.06,2.83.08,4.23a11.26,11.26,0,0,0,1.18,5.61c2.89,5.16-1.79,12-5.82,13.37-4.93,1.69-8.08.44-10.41-4.26a15.51,15.51,0,0,1-1.66-6.52c-.42-17.8-.54-35.59-.72-53.4a27.67,27.67,0,0,0-.13-4.86,7.38,7.38,0,0,0-1,2.19c-5.12,12.56-9.93,25.21-14.6,38a32.33,32.33,0,0,1-4.88,9.23,17.71,17.71,0,0,1-2.1,2c-3.89,3.41-10.8.19-11.66-4.25a52.35,52.35,0,0,1-.75-6.35c-.5-7.75-.92-15.51-1.47-23.26-.79-10.93-1.6-21.86-3.14-32.73-.22-1.51-.42-3-.64-4.71a4.23,4.23,0,0,0-1.18,1.89,91,91,0,0,0-5.18,17.63,363.45,363.45,0,0,0-5.6,36.5c-1.29,11.78-2.33,23.6-2.64,35.45a8.35,8.35,0,0,1-16.69-.09c-.06-6.67.42-13.3.91-19.93C6.93,102.9,7.54,96.45,8.36,90c2.22-17.26,4.92-34.44,10.54-51,2.12-6.19,4.55-12.29,8.92-17.29,3.64-4.13,8.2-6.51,13.88-6,3.69.35,6.27,2.47,8,5.67,1.64,3,2.27,6.42,2.89,9.77,1.91,10.24,2.83,20.59,3.77,31,0,.19,0,.37.07.55A.53.53,0,0,0,56.72,62.82Z"/><path class="cls-3" d="M204.42,22.48c-4.69-5.89-10.82-9.74-17.67-12.44C176,5.83,164.93,5.59,153.81,8.29a52.83,52.83,0,0,0-16.71,7.1,8.34,8.34,0,0,0,.61,14.48,8,8,0,0,0,7.93-.12,48.52,48.52,0,0,1,8.29-4c.66-.24,1-.3,1,.6-.24,4.21-.36,8.42-.54,12.57-.72,15.2-1.32,30.41-1.5,45.67-.18,7.64-.24,15.27-.06,23.2-.3,6.43-.18,13.1,0,19.83a62.58,62.58,0,0,0,1.2,12.09,6.1,6.1,0,0,0,1.44,3.3,8.36,8.36,0,0,0,14.31-7.93,13.15,13.15,0,0,1-.54-3.79c-.18-9.13.36-18.39.36-27.59,0-4.56.06-9.07-.06-13.58-.06-1.62.3-2.64,1.92-3.18a12.59,12.59,0,0,0,2.89-1.69,123.77,123.77,0,0,0,21.81-16.82c6.07-5.89,10.82-12.75,13-21C211.57,38.4,210.31,30,204.42,22.48Zm-13.28,25.3c-3.07,5.35-7.34,9.56-11.9,13.4a86.85,86.85,0,0,1-8.42,6.37c-.12.12-.36.36-.66.24-.06-1.2-.06-2.4-.06-3.66.54-13,1.08-26.09,1.56-39.25,0-1.08.42-1.26,1.44-1.08a31,31,0,0,1,14.37,5.53C194,34.26,195.22,40.57,191.14,47.78Z"/><path class="cls-3" d="M128,122.19a25.43,25.43,0,0,1-6.71,3,16,16,0,0,1-17-6.71c-3.33-4.7-5-10-6.07-15.62A67.22,67.22,0,0,1,98.57,75c1.13-4.84,3-9.36,6.92-12.72a14.75,14.75,0,0,1,11.61-3.67,5.16,5.16,0,0,1,4.69,6.85c-1.18,4.33-3,8.42-4.54,12.62-2.14,6-4.15,11.91-5,18.21-.5,3.86-.67,7.71,1.13,11.28,2.37,4.75,5.68,6,10.55,4.56,4.44-1.38,7.42-4.57,9.66-8.49,4.15-7.29,4.69-15,2.54-23-1.2-4.45-2.39-8.88-3.54-13.33a8.06,8.06,0,0,1,2.19-7.79c2.08-2.3,5.68-2.21,8.31,0,3.41,2.91,5,6.82,6.06,11A62.72,62.72,0,0,1,150.52,89,126.09,126.09,0,0,1,140,133c-4.14,9.48-9.36,18.32-17,25.49a35.8,35.8,0,0,1-12,7.67,12.09,12.09,0,0,0-1.81,1,8.38,8.38,0,0,1-10.41-12.89,3.51,3.51,0,0,1,1.54-1.09c8.72-2.63,15-8.4,20-15.67a62.08,62.08,0,0,0,7-13.48C127.57,123.53,127.71,123,128,122.19Z"/><path class="cls-3" d="M248.83,111.37a8.35,8.35,0,0,0-10.52-4.21A66.32,66.32,0,0,1,223.77,111c-1.74.24-3.61.66-5.41-.42a2,2,0,0,1,.36-.36,119.17,119.17,0,0,0,20.92-19.84c3.42-4.09,6.67-8.35,8.53-13.46s1.8-10-1.62-14.55a22,22,0,0,0-7-5.82C233.45,53,227,51.39,220,53a30.58,30.58,0,0,0-15.56,9.07c-8.66,9.14-13.53,20-13.89,32.58-.24,7.81,1.63,15.21,6.68,21.22,8,9.49,18.09,13.7,30.53,11.53a67.38,67.38,0,0,0,17.25-4.92C249.19,120.56,250.76,115.75,248.83,111.37ZM207.6,97.3c-.42-.18-.24-.66-.24-1.08s0-1-.06-1.5c.6-8.53,3.61-15.93,10-21.7a16.31,16.31,0,0,1,10.58-4.38c2.82-.06,4,1.5,3,4.2a19.17,19.17,0,0,1-3.24,5.35,105.39,105.39,0,0,1-19.06,18.63C208.26,97.06,208,97.42,207.6,97.3Z"/><path class="cls-3" d="M280.84,38c-9,3.28-14.78,10-18.82,18.35-6.25,12.89-8.07,26.56-6.81,40.73A43.6,43.6,0,0,0,260,114.42c2.16,3.93,5,7.12,9.64,8.12,1,.21,1.94.27,3.09.43a11.34,11.34,0,0,1-5.26,2c-7.93,1.27-13.36-2.4-15.87-10.59a57.43,57.43,0,0,1-2.21-12.31,149.91,149.91,0,0,1,.81-27.45,207.62,207.62,0,0,1,5.32-29.8c.21-.78,0-1-.77-.88a15.47,15.47,0,0,0-5.53,1.9,29.56,29.56,0,0,0-3.83,2.54c-4.13,3.39-8.36,3.05-12.66.44a12.06,12.06,0,0,1-2.92-2.28,4.93,4.93,0,0,1-.7-6,17.75,17.75,0,0,1,6.14-6.22,79.6,79.6,0,0,1,22.23-10.44,1.55,1.55,0,0,0,1.29-1.42c.6-3.52,1.87-6.74,4.68-9.13a8.13,8.13,0,0,1,8.33-1.78c3.19,1.11,4.74,3.58,5.16,6.85.22,1.79.24,1.77,2.13,1.77a199.69,199.69,0,0,1,26.79,1.37,37.51,37.51,0,0,1,6.64,1.23c-.48.8-1.28.46-1.9.45a27.61,27.61,0,0,0-13.59,2.87,47.81,47.81,0,0,0-11.81,8.4C283.92,35.72,282.79,37.38,280.84,38Z"/><path class="cls-4" d="M280.84,38c4.57-3.84,8.64-8.3,14-11.15a35.41,35.41,0,0,1,8.51-3.29c3.08-.76,6.17-.62,9.26-.8a41.94,41.94,0,0,1,17.71,6.79c3.83,2.71,6.3,6.26,5.86,11.22a13.24,13.24,0,0,1-3.65,8.14c-2.24,2.37-5.17,2.36-8.11,2-4.29-.54-8.14-2.34-11.94-4.27a91.17,91.17,0,0,1-8.06-4.67c-5.58-3.55-11.75-4.58-18.21-4.36C284.39,37.61,282.61,37.83,280.84,38Z"/><path class="cls-1" d="M327.83,89.48a22.1,22.1,0,0,0-4.76-1.69,6.23,6.23,0,0,0-1.13-.14c-1.4,0-1.9.78-1.2,2a21.53,21.53,0,0,1,2.5,7.19c1.05,5.84-.86,10.89-5.24,13.7a15.94,15.94,0,0,1-8.56,2.61c-2.51,0-5-.09-7.56-.17a20.31,20.31,0,0,0-8.93,1.88c-3,1.3-5.89,2.68-9.16,3.1a8.14,8.14,0,0,1-5.92-1.43c-.77-.55-1.51-1.14-2.31-1.6-1.73-1-3.06-.53-3.79,1.32-.3.74-.44,1.54-.7,2.39-1.65-5.56,1.61-9.56,7.85-9.58a23.46,23.46,0,0,0-2.43.88c-1.53.73-1.82,1.89-.71,3.19,2.5,2.92,5.31,3.51,9.62,2a6.41,6.41,0,0,0,4.39-5.48c.41-2.85.28-5.63-1.61-8-1.32-1.67-3.25-1.69-5.12-1.91a42.06,42.06,0,0,1-9.75-1.89c-4.31-1.57-5.76-5.26-3.6-9.34a13.87,13.87,0,0,1,6.44-5.84,34.92,34.92,0,0,1,16.32-4.07,14.28,14.28,0,0,1,7.44,2c3.74,2.33,4.31,6.23,1.4,9.56a19.52,19.52,0,0,1-4.4,3.48c-3,1.91-4.63,4.56-4.13,8.18a9.28,9.28,0,0,0,4.64,7c5.94,3.55,15.9,2.53,21-2.17a8.25,8.25,0,0,0,2.83-6.6,23.29,23.29,0,0,0-2.11-9.28c-1.62-3.38-5-3.63-7.16-.46-.59.87-1.08,1.79-1.72,2.62a7.74,7.74,0,0,1,5-6.63C319.19,84.66,324.36,85.92,327.83,89.48Z"/><path class="cls-3" d="M317.35,121.07c9.84-.4,15,10.34,11.74,17.59a7.77,7.77,0,0,1-6.25,4.68c-.5.07-.93.1-1.19.71-1.89,4.51-7.53,6-12,4a10.45,10.45,0,0,1-3.57-2.64,2.11,2.11,0,0,0-2.14-.75,10.78,10.78,0,0,1-3.31.15c-2.74-.43-4.19-2.16-4.45-5.21-.51-6.42,2.57-10.93,7.63-14.33A23.89,23.89,0,0,1,317.35,121.07Z"/><path class="cls-2" d="M328.47,125.79a12.55,12.55,0,0,0-11.12-5.65,25,25,0,0,0-14,4.33c-5.95,4-8.53,8.95-8,15.2.36,4.39,3.07,5.71,5.23,6.08a11.19,11.19,0,0,0,3.24-.13l.37-.05a1.19,1.19,0,0,1,1.26.42,11.58,11.58,0,0,0,3.9,2.88,10.79,10.79,0,0,0,4.51,1,10.06,10.06,0,0,0,3.73-.72,8.75,8.75,0,0,0,5-4.81c.06-.06.24-.06.48-.12a8.59,8.59,0,0,0,7-5.23A14,14,0,0,0,328.47,125.79Zm-.24,12.5a6.94,6.94,0,0,1-5.59,4.15,2,2,0,0,0-1.87,1.26,7,7,0,0,1-3.9,3.73,8.88,8.88,0,0,1-6.79-.24,9.75,9.75,0,0,1-3.25-2.41,2.87,2.87,0,0,0-2.34-1.14c-.24,0-.42.06-.67.06l-.3.06a10.42,10.42,0,0,1-2.7.12c-2.28-.36-3.43-1.74-3.67-4.39-.42-5.52,1.93-9.91,7.22-13.46a23.2,23.2,0,0,1,13-4h.06a10.55,10.55,0,0,1,9.49,4.86A12.05,12.05,0,0,1,328.23,138.29Z"/><path class="cls-3" d="M278.89,126.23c8.86-.16,14.7,7.94,11.47,17a4.83,4.83,0,0,1-4.86,3.47,1.36,1.36,0,0,0-1.37.86c-3.08,5.33-8.67,4.32-11.95,1.63-.09-.09-.23-.16-.27-.27-.67-1.81-2.25-1.81-3.81-1.95a7.07,7.07,0,0,1-2.09-.48c-3-1.16-4.2-3.64-3.52-7C263.81,132.88,272.27,125.85,278.89,126.23Z"/><path class="cls-2" d="M289.82,130.54a12.81,12.81,0,0,0-10.64-5.23h-.3c-7-.42-15.86,6.79-17.31,13.94-.78,3.91.66,6.8,4.09,8.12a7.82,7.82,0,0,0,2.34.54h.37c1.44.12,2.28.24,2.64,1.38a1.44,1.44,0,0,0,.6.6A10,10,0,0,0,278,152.3a5.15,5.15,0,0,0,1.38-.12A8.06,8.06,0,0,0,285,148c.24-.42.3-.42.54-.42a5.85,5.85,0,0,0,5.77-4.09A14,14,0,0,0,289.82,130.54Zm-.36,12.38a3.91,3.91,0,0,1-4,2.83,2.24,2.24,0,0,0-2.16,1.32,6.1,6.1,0,0,1-4.27,3.24,8.26,8.26,0,0,1-6.25-1.8l-.12-.12c-.84-2-2.76-2.22-4.2-2.34h-.31a9.61,9.61,0,0,1-1.86-.43c-2.52-1-3.48-3-2.88-6,1.26-6.25,9.25-12.8,15.38-12.44h.06a11.11,11.11,0,0,1,9.38,4.45A12.19,12.19,0,0,1,289.46,142.92Z"/><path class="cls-5" d="M262.83,68.89A16,16,0,0,1,265.59,59c1.65-2.62,3.69-4.72,6.72-5.51,4.52-1.17,7.7.72,9,5.28a16.43,16.43,0,0,1-2.56,14.55,12,12,0,0,1-7.55,5.24c-2.46.5-5.91-1.37-7.07-3.8C263.24,72.78,262.52,70.79,262.83,68.89Z"/><path class="cls-5" d="M308.13,65.57c0,3.52-.56,6-2.58,7.93a7.41,7.41,0,0,1-9.19.68c-5.84-3.61-8.56-9-8.29-15.81A8.56,8.56,0,0,1,291,52.06c2.15-1.94,5.62-1.83,7.68-.79A16.64,16.64,0,0,1,308.13,65.57Z"/><path class="cls-1" d="M278.88,60.81a8.6,8.6,0,0,1-2.32,6c-2.59,2.71-5.93,1.86-6.89-1.75a8.22,8.22,0,0,1,1.7-7.65c1.09-1.35,2.48-2.3,4.3-1.86s2.72,2,3.1,3.83C278.84,59.89,278.83,60.36,278.88,60.81Z"/><path class="cls-1" d="M302.1,61.23a4.19,4.19,0,0,1-2.1,3.83,4.07,4.07,0,0,1-4.63-.76,8.27,8.27,0,0,1-3.29-7.85,3.69,3.69,0,0,1,5.65-2.94A8.92,8.92,0,0,1,302.1,61.23Z"/><path class="cls-6" d="M276.82,58.52a2.09,2.09,0,0,1-2.08,2.12,2.13,2.13,0,1,1,2.08-2.12Z"/><path class="cls-7" d="M295.88,58.24a2.19,2.19,0,0,1-2.22-2.15,2.16,2.16,0,1,1,4.31,0A2.18,2.18,0,0,1,295.88,58.24Z"/><path class="cls-2" d="M336.16,95.41a42.08,42.08,0,0,1-5.12,13c-1.29,2.3-2.85,4.79-4.72,7.47-5.57,1.6,2.07-25.16,2.07-25.16l-.05-.11L328,89.8l-5.26-11a19,19,0,0,1,4.47.86c2.87.92,6.38,2.77,8.16,6.54a.09.09,0,0,1,0,.06A14.64,14.64,0,0,1,336.16,95.41Z"/></g></g></svg>