<svg xmlns="http://www.w3.org/2000/svg" viewBox="0 0 26 26"><defs><style>.cls-1,.cls-2{fill:#fff;}.cls-1{opacity:0;}</style></defs><g id="Layer_2" data-name="Layer 2"><g id="Layer_1-2" data-name="Layer 1"><rect class="cls-1" width="26" height="26"/><g id="Layer_2-2" data-name="Layer 2"><g id="Layer_1-2-2" data-name="Layer 1-2"><path class="cls-2" d="M25.76,2a1.18,1.18,0,0,0-1.65-.24L21.34,3.81a3.34,3.34,0,0,0-2.65-1.38H4.37A2.52,2.52,0,0,0,2,5.07v9.51a2.53,2.53,0,0,0,2.37,2.65h13a2.94,2.94,0,0,0,2.76-2.3l2-7.5a4.46,4.46,0,0,0,.14-1.31l3.34-2.49A1.18,1.18,0,0,0,25.76,2Zm-6,4.87-2,7.5c-.09.33-.3.53-.46.53H4.46a.46.46,0,0,1-.08-.28V5.06a.46.46,0,0,1,.08-.28H18.71a1,1,0,0,1,.79.44A1.85,1.85,0,0,1,19.76,6.85Z"/><path class="cls-2" d="M5.77,19.05a2.72,2.72,0,1,0,2.72,2.72h0a2.71,2.71,0,0,0-2.71-2.72Z"/><path class="cls-2" d="M17.29,19.05A2.72,2.72,0,1,0,20,21.77h0A2.72,2.72,0,0,0,17.29,19.05Z"/></g></g></g></g></svg>