<svg width="38" height="38" viewBox="0 0 38 38" fill="none" xmlns="http://www.w3.org/2000/svg">
<path d="M18.87 37.74C29.2916 37.74 37.74 29.2916 37.74 18.87C37.74 8.44839 29.2916 0 18.87 0C8.44839 0 0 8.44839 0 18.87C0 29.2916 8.44839 37.74 18.87 37.74Z" fill="white"/>
<path d="M18.87 30.5L9.03999 20.67C7.91999 19.55 7.29999 18.05 7.29999 16.46C7.29999 14.87 7.91999 13.37 9.03999 12.25C10.17 11.13 11.66 10.51 13.25 10.51C14.84 10.51 16.33 11.13 17.46 12.25L18.87 13.66L20.29 12.25C21.42 11.13 22.91 10.51 24.5 10.51C26.09 10.51 27.58 11.13 28.71 12.25C29.84 13.37 30.46 14.87 30.46 16.46C30.46 18.05 29.84 19.55 28.72 20.67L18.89 30.5H18.87ZM13.25 12C12.06 12 10.94 12.46 10.1 13.3C9.25999 14.14 8.79999 15.26 8.79999 16.45C8.79999 17.64 9.25999 18.76 10.1 19.6L18.87 28.37L27.64 19.6C28.48 18.76 28.95 17.64 28.95 16.45C28.95 15.26 28.49 14.14 27.64 13.3C26.8 12.46 25.68 12 24.49 12C23.3 12 22.18 12.46 21.34 13.3L18.86 15.77L16.39 13.3C15.55 12.46 14.43 12 13.24 12H13.25Z" fill="#217ECC"/>
</svg>
