<svg xmlns="http://www.w3.org/2000/svg" viewBox="0 0 26 26"><defs><style>.cls-1,.cls-2,.cls-3{fill:#fff;}.cls-1{opacity:0;}.cls-2{fill-opacity:0;}</style></defs><g id="Layer_2" data-name="Layer 2"><g id="Layer_1-2" data-name="Layer 1"><rect class="cls-1" width="26" height="26"/><g id="Layer_2-2" data-name="Layer 2"><g id="Layer_1-2-2" data-name="Layer 1-2"><rect class="cls-2" x="1" y="1" width="24" height="24"/><path class="cls-3" d="M23.12,20a3.84,3.84,0,0,1-2.85-3.22V10a6.06,6.06,0,0,0-5.17-6.4.67.67,0,0,0,0-.2,2.13,2.13,0,1,0-4.25,0h0v.2A6.06,6.06,0,0,0,5.73,10v6.72A3.84,3.84,0,0,1,2.87,20,1.33,1.33,0,0,0,3.2,22.6h7.27a2.59,2.59,0,0,0,5.08,0H22.8A1.33,1.33,0,0,0,23.13,20Zm-7.19.44H15a2.57,2.57,0,0,0-3.63-.27,2.37,2.37,0,0,0-.28.27H6.28a5.39,5.39,0,0,0,1.63-3.66V10c0-3.64,2.77-4.42,5.09-4.42s5.09.77,5.09,4.42v6.72a5.34,5.34,0,0,0,1.63,3.64Z"/></g></g></g></g></svg>