<svg xmlns="http://www.w3.org/2000/svg" viewBox="0 0 26 26"><defs><style>.cls-1,.cls-2{fill:#fff;}.cls-1{opacity:0;}</style></defs><g id="Layer_2" data-name="Layer 2"><g id="Layer_1-2" data-name="Layer 1"><rect class="cls-1" width="26" height="26"/><g id="Layer_2-2" data-name="Layer 2"><g id="Layer_1-2-2" data-name="Layer 1-2"><rect class="cls-2" x="7.71" y="6.24" width="9.7" height="2.35"/><rect class="cls-2" x="7.71" y="11.51" width="8.06" height="2.35"/><rect class="cls-2" x="7.71" y="16.78" width="5.77" height="2.35"/><path class="cls-2" d="M22.18,15.87v-12A2.86,2.86,0,0,0,19.37,1H5.82A2.87,2.87,0,0,0,3,3.86v17.6a2.87,2.87,0,0,0,2.87,2.86h12a4.63,4.63,0,0,0,2.46.68,4.78,4.78,0,0,0,1.93-9.17ZM5.82,22a.51.51,0,0,1-.52-.5V3.91a.53.53,0,0,1,.49-.56H19.37a.51.51,0,0,1,.52.51V15.49a4.78,4.78,0,0,0-4.38,4.77A4.83,4.83,0,0,0,15.85,22Zm16.36-1.63-1.45,1.44L19.67,22.9l-.9-.88-.18-.19-2-2,1.08-1.08,2,2,.16-.17,2.35-2.34.63-.64,1.07,1.08Z"/></g></g></g></g></svg>