<svg xmlns="http://www.w3.org/2000/svg" viewBox="0 0 26 26"><defs><style>.cls-1,.cls-2{fill:#fff;}.cls-1{opacity:0;}</style></defs><g id="Layer_2" data-name="Layer 2"><g id="Layer_1-2" data-name="Layer 1"><rect class="cls-1" width="26" height="26"/><g id="Layer_2-2" data-name="Layer 2"><g id="Layer_1-2-2" data-name="Layer 1-2"><path class="cls-2" d="M24.62,23.25A17.68,17.68,0,0,0,18,14.74a7.77,7.77,0,1,0-10,0,17.46,17.46,0,0,0-6.64,8.51,1.4,1.4,0,0,0,.82,1.68,1.29,1.29,0,0,0,.51.07A1.4,1.4,0,0,0,4,24.1c0-.07,2-5.85,7-7.83a7.71,7.71,0,0,0,4.19,0c4.92,2,7,7.72,7,7.83a1.41,1.41,0,0,0,1.27.9,1.23,1.23,0,0,0,.42-.07A1.41,1.41,0,0,0,24.62,23.25ZM7.89,8.8A5.1,5.1,0,1,1,13,13.9,5.09,5.09,0,0,1,7.89,8.8Z"/></g></g></g></g></svg>